<svg viewBox="0 0 24 24" height="24" width="24" preserveAspectRatio="xMidYMid meet" class="" version="1.1" x="0px" y="0px" enable-background="new 0 0 24 24" xml:space="preserve"><path fill="currentColor" d="M12,4.7c-4.5,0-8.2,3.7-8.2,8.2s3.7,8.2,8.2,8.2s8.2-3.7,8.2-8.2S16.5,4.7,12,4.7z  M12.8,18.6h-1.6V17h1.6V18.6z M14.5,12.3L13.8,13c-0.7,0.6-1,1.1-1,2.3h-1.6v-0.4c0-0.9,0.3-1.7,1-2.3l1-1.1 c0.3-0.2,0.5-0.7,0.5-1.1c0-0.9-0.7-1.6-1.6-1.6s-1.6,0.7-1.6,1.6H8.7c0-1.8,1.5-3.3,3.3-3.3s3.3,1.5,3.3,3.3 C15.3,11.2,14.9,11.8,14.5,12.3z"></path></svg>